<svg xmlns="http://www.w3.org/2000/svg" xmlns:xlink="http://www.w3.org/1999/xlink" width="19" height="24" version="1.1"><rect id="backgroundrect" width="100%" height="100%" x="0" y="0" fill="none" stroke="none"/>
    <!-- Generator: Sketch 41.2 (35397) - http://www.bohemiancoding.com/sketch -->
    <title>ic_home</title>
    <desc>Created with Sketch.</desc>
    <defs>
        <filter x="-50%" y="-50%" width="200%" height="200%" filterUnits="objectBoundingBox" id="filter-1">
            <feOffset dx="0" dy="2" in="SourceAlpha" result="shadowOffsetOuter1"/>
            <feGaussianBlur stdDeviation="2" in="shadowOffsetOuter1" result="shadowBlurOuter1"/>
            <feColorMatrix values="0 0 0 0 0   0 0 0 0 0   0 0 0 0 0  0 0 0 0.05 0" type="matrix" in="shadowBlurOuter1" result="shadowMatrixOuter1"/>
            <feMerge>
                <feMergeNode in="shadowMatrixOuter1"/>
                <feMergeNode in="SourceGraphic"/>
            </feMerge>
        </filter>
    </defs>
    
<g class="currentLayer"><title>Layer 1</title><g id="OPt-2" stroke="none" stroke-width="1" fill="#344595" fill-rule="evenodd" class="" fill-opacity="1">
        <g id="prog2_pro3_Mobile-Portrait_opt2-Copy-2" fill="#344595" fill-opacity="1">
            <g id="nav" fill="#344595" fill-opacity="1">
                <g id="Group-6" filter="url(#filter-1)" fill="#344595" fill-opacity="1">
                    <g id="ic_home" fill="#344595" fill-opacity="1">
                        <g id="Group" fill="#344595" fill-opacity="1">
                            <path d="M16.50090142226317,7.810257059146286 L15.656594816112628,8.46418805092074 L14.296539145099764,9.517497370314684 C14.113488512413594,8.601953631970776 13.583549690219527,7.814925849834811 12.85055484217128,7.3031606274882 L15.468785367415384,5.27542155284215 L14.657969239260884,4.199371355201421 C14.326592034966383,3.7593811403724438 14.409612867856906,3.1301345535876877 14.843575570883258,2.793976381195929 L16.81738419672221,5.411935479620244 C17.10963016680519,5.799741576308634 17.211687277351434,6.2735310380415825 17.141357773280596,6.720200574458643 C17.07561129495563,7.138298170627728 16.858982498853543,7.532895303433516 16.50090142226317,7.810257059146286 L16.50090142226317,7.810257059146286 z" id="Shape" fill="#344595" fill-opacity="1"/>
                            <path d="M8.202022458455945,16.963552491718644 C11.12228244295758,15.432724310055338 13.72279885646691,14.999860737811128 14.378766659355746,16.05122604868971 C14.917518478854308,16.914586367935417 14.000943662448465,18.55195021400737 12.206748506259606,20.22880910428424 L13.909903131994945,22.998852004297184 L15.069899212863028,22.998852004297184 C15.6034515173634,23.013685211245395 16.031773968618367,23.455641246601253 16.031773968618367,24 L14.525418533248333,24 L12.528342716377136,24 L11.912827815789235,22.998852004297184 L10.925835834453618,21.393478132309053 L10.540081294895192,20.76637590525328 C10.676156799297155,20.540483572421113 10.755211624699141,20.275632379781474 10.755211624699141,19.991658316083793 C10.755211624699141,19.169066337289113 10.097481394276041,18.502088465792838 9.285959648965962,18.502088465792838 C9.240924646677962,18.502088465792838 9.196946445322125,18.506401273873315 9.152968225073248,18.51031033774755 L8.202022458455945,16.963552491718644 L8.202022458455945,16.963552491718644 z" id="Shape" fill="#344595" fill-opacity="1"/>
                            <path d="M0.03401984302020304,7.424059591222342 C0.18648825961484847,6.679922838952658 0.8365518561087417,6.120530536838594 1.6158156768340544,6.120530536838594 C1.8382610694833585,6.120530536838594 2.0501309900613096,6.16628085785681 2.2427874474675487,6.24857802129465 C2.8236683311931836,6.496921498200695 3.2316314471201117,7.0794126071524275 3.2316314471201117,7.758788089698575 L3.2316314471201117,15.527598814006506 C3.2316314471201117,16.081071190718625 3.674230412533921,16.53008547586436 4.220475352307495,16.53008547586436 C4.618126554032849,16.53008547586436 4.960167328631443,16.29141634872452 5.117132004698356,15.948220831688612 C5.13105683441512,15.917750141196024 5.143571487830819,15.886274246656036 5.154499409512251,15.854285217224069 L6.072660400307757,13.547128814964866 L4.290452328362154,7.450508766482919 C4.289218329633531,7.446599617590017 4.287542611693774,7.442489144492072 4.2863086129651515,7.438356585433571 C4.2646289471747325,7.37008833345476 4.245591756040655,7.301820053136394 4.226996189652524,7.23337307302511 C3.5779031284826632,4.844434210342133 4.746007477472418,2.350590624691961 6.930186644112826,1.3283552882563754 L11.127922732515039,2.808094618935126 C11.64323202414907,2.986539100797806 11.91873250395663,3.5536161080312105 11.745376786107729,4.076350098805815 L10.682325923860557,3.690956699654606 C10.262111797406371,3.5385820680969218 9.799770477135803,3.7604535280603457 9.649505649941954,4.18632548625709 C9.499239878096244,4.612197198844349 9.718072279658207,5.081138650537328 10.138198251200539,5.233424191977814 L11.235003555513824,5.631037258107458 C11.043492035058565,6.1448353712632215 10.479269435126959,6.407542648160252 9.96960136825574,6.217861768550279 L8.811280032335997,5.786516979231827 C8.729052971512907,6.259055268465286 8.990981175125489,6.736820656531336 9.451648723439142,6.903648716648762 L11.670641031828072,7.722330677470817 C12.60678052352177,8.128008019284872 13.270768968625466,9.051594448018124 13.31677355213912,10.137451104988099 C13.318448297087457,10.177303596011447 13.321179795735366,10.21697832244721 13.321179795735366,10.257210412375178 C13.321179795735366,10.281851089430136 13.318712705143913,10.305999744562257 13.318007560314262,10.330482825346914 C13.322413813357029,10.319202246231988 13.325234430461691,10.311718364652195 13.325234430461691,10.311718364652195 L16.788829297993843,10.311718364652195 L16.788829297993843,8.957591479875752 C16.788829297993843,8.5791676277045 17.25037732702478,8.250068347465891 17.54288822850134,8.079398426007764 L17.777672327488943,7.955014547085872 L17.777672327488943,11.2735260690183 C17.765157530486164,12.207656494022828 17.015505100520215,12.961197633449322 16.09117503806182,12.961197633449322 L12.184450943685606,12.961197633449322 C11.838444643370925,12.961197633449322 11.502132303795127,13.002926873775383 11.179921122652845,13.081225949347417 C11.195662895762885,13.077361000715182 11.211163943238681,13.071597207373152 11.226828944491816,13.067040395716468 C11.209951718735498,13.072066227023132 11.193052690414186,13.077070803662874 11.17586648792652,13.081225949347417 C11.165819954772811,13.083705188161836 11.155684322055388,13.08638629907937 11.14554871767752,13.08897700681362 C9.404410160089903,13.525840046115352 8.0820744379662,15.03928852280339 7.9059863240501205,16.89298425806295 C7.902989416014782,16.925331688411728 7.9010511793223035,16.9580136199852 7.8986713178838714,16.990718601064128 C7.890827401139543,17.098123911977844 7.885627848355277,17.206065501754182 7.885627848355277,17.31543880589407 C7.885627848355277,18.358939701082885 8.247938868164706,19.316481716603437 8.851644382971298,20.066560518021703 C8.895887030169664,20.121582615968194 8.941451821561984,20.175574476592903 8.98824969537062,20.228273014352 C9.111546223319102,20.406448431024543 9.184608177302284,20.623048412410853 9.184608177302284,20.85734134533021 C9.184608177302284,21.463712053670445 8.699616684256815,21.955351109108364 8.101463322988868,21.955351109108364 C7.886244800486993,21.955351109108364 7.685831712168564,21.891728522740475 7.517323012475176,21.78219953997357 L5.324329393766402,20.46991524430022 C5.021771477363683,20.64147932597926 4.817129371585022,20.968857592221283 4.817129371585022,21.345248081257456 C4.817129371585022,21.593993715354614 4.906496082849024,21.82185215210922 5.054557320642079,21.996990985368186 L5.964610931288666,22.998852004297184 L7.074723102409506,22.998852004297184 L7.075251918522405,22.998852004297184 L7.129013189627365,22.998852004297184 C7.662389137071436,23.013685211245395 8.090711578879885,23.455641246601253 8.090711578879885,24 L6.113377257232256,24 L6.113024618691803,24 L4.919186913837169,24 C4.919186913837169,23.054967631240267 4.163629037148387,22.289006209119197 3.2316314471201117,22.289006209119197 L3.2316314471201117,19.370452511491614 C4.004990532445442,19.21425782115822 4.587985074714515,18.522841144710103 4.587985074714515,17.692878614219648 C4.587985074714515,17.651261787465277 4.586047782673898,17.60995631796495 4.583138066005518,17.568875770073205 C4.484253609361147,17.583864655648437 4.384135248453346,17.594229470354346 4.281109060180886,17.594229470354346 C3.8966776000217624,17.594229470354346 3.538507461653745,17.48432177665557 3.2316314471201117,17.29669644060643 C2.6397353558809047,16.93495844661708 2.2427874474675487,16.279106590297907 2.2427874474675487,15.527598814006506 L2.2427874474675487,7.758788118038131 C2.2427874474675487,7.396805629253608 1.9533620812641057,7.103471425892378 1.596427830928435,7.103471425892378 C1.252095330910229,7.103471425892378 0.9713933523355615,7.376700622546647 0.9520035226610298,7.721102072704332 C1.396014648144819,8.029269473567261 1.6875555621954257,8.546575041304232 1.6875555621954257,9.133354869713935 C1.6875555621954257,10.07829692975556 0.9320867661773203,10.844259258742424 1.0131842032023997e-9,10.844259258742424 L1.0131842032023997e-9,7.758788118038131 C9.547836824998593e-8,7.644054575832088 0.011809471813156868,7.532269717183771 0.03401984302020304,7.424059591222342 L0.03401984302020304,7.424059591222342 z" id="Shape" fill="#344595" fill-opacity="1" transform=""/>
                        </g>
                    </g>
                </g>
            </g>
        </g>
    </g></g></svg>